# AST/ASF file generated using VICON BodyLanguage
# -----------------------------------------------
:version 1.10
:name VICON
:units
  mass 1.0
  length 0.45
  angle deg
:documentation
   .ast/.asf automatically generated from VICON data using
   VICON BodyBuilder and BodyLanguage model FoxedUp or BRILLIANT.MOD
:root
   order TX TY TZ RX RY RZ
   axis XYZ
   position 0 0 0  
   orientation 0 0 0 
:bonedata
  begin
     id 1 
     name lhipjoint
     direction 0.578396 -0.714046 0.394458 
     length 2.21935 
     axis 0 0 0  XYZ
  end
  begin
     id 2 
     name lfemur
     direction 0.34202 -0.939693 0  
     length 6.39105  
     axis 0 0 20  XYZ
    dof rx ry rz
    limits (-160.0 20.0)
           (-70.0 70.0)
           (-60.0 70.0)
  end
  begin
     id 3 
     name ltibia
     direction 0.34202 -0.939693 0   
     length 6.99037   
     axis 0 0 20   XYZ
    dof rx
    limits (-10.0 170.0)
  end
  begin
     id 4 
     name lfoot
     direction 0.0582372 -0.160005 0.985397   
     length 2.06111   
     axis -90 7.62852e-016 20   XYZ
    dof rx rz
    limits (-45.0 90.0)
           (-70.0 20.0)
  end
  begin
     id 5 
     name ltoes
     direction 1.53556e-011 -4.21875e-011 1   
     length 1.04074   
     axis -90 7.62852e-016 20   XYZ
    dof rx
    limits (-90.0 20.0)
  end
  begin
     id 6 
     name rhipjoint
     direction -0.558179 -0.726269 0.40121   
     length 2.182  
     axis 0 0 0  XYZ 
  end
  begin
     id 7 
     name rfemur
     direction -0.34202 -0.939693 0   
     length 6.51172   
     axis 0 0 -20   XYZ
    dof rx ry rz
    limits (-160.0 20.0)
           (-70.0 70.0)
           (-70.0 60.0)
  end
  begin
     id 8 
     name rtibia
     direction -0.34202 -0.939693 0   
     length 7.02607   
     axis 0 0 -20   XYZ
    dof rx
    limits (-10.0 170.0)
 end
 begin
     id 9 
     name rfoot
     direction -0.0788856 -0.216737 0.973038   
     length 1.96734  
     axis -90 -7.62852e-016 -20   XYZ
    dof rx rz
    limits (-45.0 90.0)
           (-20.0 70.0)
  end
  begin
     id 10 
     name rtoes
     direction -1.53567e-011 -4.21783e-011 1   
     length 0.990825   
     axis -90 -7.62852e-016 -20   XYZ
    dof rx
    limits (-90.0 20.0)
  end
  begin
     id 11 
     name lowerback
     direction 0.00668177 0.999323 -0.0361741   
     length 1.7655   
     axis 0 0 0   XYZ
    dof rx ry rz
    limits (-20.0 45.0)
           (-30.0 30.0)
           (-30.0 30.0)
  end
  begin
     id 12 
     name upperback
     direction -0.00222086 0.99851 0.0545167   
     length 1.74912   
     axis 0 0 0   XYZ
    dof rx ry rz
    limits (-20.0 45.0)
           (-30.0 30.0)
           (-30.0 30.0)
  end
  begin
     id 13 
     name thorax
     direction -0.00733971 0.997496 0.0703443   
     length 1.75715   
     axis 0 0 0   XYZ
    dof rx ry rz
    limits (-20.0 45.0)
           (-30.0 30.0)
           (-30.0 30.0)
  end
  begin
     id 14 
     name lowerneck
     direction 0.0279797 0.994795 0.0979765   
     length 1.46939   
     axis 0 0 0   XYZ
    dof rx ry rz
    limits (-20.0 45.0)
           (-30.0 30.0)
           (-30.0 30.0)
  end
  begin
     id 15 
     name upperneck
     direction 0.00339187 0.976776 -0.214238   
     length 1.48018   
     axis 0 0 0   XYZ
    dof rx ry rz
    limits (-20.0 45.0)
           (-30.0 30.0)
           (-30.0 30.0)
  end
  begin
     id 16
     name head
     direction -0.00263506 0.996603 -0.0823096  
     length 1.4976  
     axis 0 0 0   XYZ
    dof rx ry rz
    limits (-20.0 45.0)
           (-30.0 30.0)
           (-30.0 30.0)
  end
  begin
     id 17 
     name lclavicle
     direction 0.894044 0.44508 -0.0508781  
     length 3.03024  
     axis 0 0 0   XYZ
    dof ry rz
    limits (-20.0 10.0)
           (0.0 20.0)
  end
  begin
     id 18 
     name lhumerus
     direction 1 -4.48961e-011 -2.39475e-018   
     length 4.4661   
     axis 180 -30 -90   XYZ
    dof rx ry rz
    limits (-60.0 90.0)
           (-90.0 90.0)
           (-90.0 90.0)
  end
  begin
     id 19
     name lradius
     direction 1 -4.48961e-011 9.29328e-028   
     length 3.41414   
     axis 180 -30 -90   XYZ
    dof rx
    limits (-10.0 170.0)
  end
  begin
     id 20
     name lwrist
     direction 1 -4.48985e-011 1.53461e-026   
     length 1.70707   
     axis -1.09697e-014 90 90   XYZ
    dof ry
    limits (-180.0 0.0)
 end
  begin
     id 21 
     name lhand
     direction 1 -4.48966e-011 3.06923e-026   
     length 0.328298   
     axis -1.95843e-014 90 90   XYZ
    dof rx rz
    limits (-90.0 90.0)
           (-45.0 45.0)
  end
  begin
     id 22 
     name lfingers
     direction 1 -4.48893e-011 6.13845e-026   
     length 0.264682   
     axis -3.91686e-014 90 90   XYZ
    dof rx
    limits (0.0 90.0)
  end
  begin
     id 23
     name lthumb
     direction 0.707107 -6.34876e-011 0.707107   
     length 0.380032   
     axis -90 45 2.85299e-015   XYZ
    dof rx rz
    limits (-45.0 45.0)
           (-45.0 45.0)
  end
  begin
     id 24 
     name rclavicle
     direction -0.936955 0.347862 -0.0332887   
     length 3.26927  
     axis 0 0 0   XYZ 
    dof ry rz
    limits (-10.0 20.0)
           (-20.0 0.0)
  end
  begin
     id 25 
     name rhumerus
     direction -1 -4.4896e-011 1.78637e-018  
     length 4.40431   
     axis 180 30 90   XYZ
    dof rx ry rz
    limits (-90.0 60.0)
           (-90.0 90.0)
           (-90.0 90.0)
  end
  begin
     id 26 
     name rradius
     direction -1 -4.48955e-011 9.34036e-027   
     length 3.04688   
     axis 180 30 90   XYZ
    dof rx
    limits (-10.0 170.0)
  end
  begin
     id 27 
     name rwrist
     direction -1 -4.49011e-011 1.53461e-026   
     length 1.52344   
     axis -1.09697e-014 -90 -90   XYZ
    dof ry
    limits (-180.0 0.0)
  end
  begin
     id 28
     name rhand
     direction -1 -4.48834e-011 3.06923e-026   
     length 0.500489   
     axis -1.95843e-014 -90 -90   XYZ
    dof rx rz
    limits (-90.0 90.0)
           (-45.0 45.0)
  end
  begin
     id 29
     name rfingers
     direction -1 -4.48967e-011 6.13845e-026   
     length 0.403507   
     axis -3.91686e-014 -90 -90   XYZ
    dof rx
    limits (0.0 90.0)
  end
  begin
     id 30
     name rthumb
     direction -0.707107 -6.34826e-011 0.707107   
     length 0.579358   
     axis -90 -45 -2.85299e-015   XYZ
    dof rx rz
    limits (-45.0 45.0)
           (-45.0 45.0)
  end
:hierarchy
  begin
    root lhipjoint rhipjoint lowerback
    lhipjoint lfemur
    lfemur ltibia
    ltibia lfoot
    lfoot ltoes
    rhipjoint rfemur
    rfemur rtibia
    rtibia rfoot
    rfoot rtoes
    lowerback upperback
    upperback thorax
    thorax lowerneck lclavicle rclavicle
    lowerneck upperneck
    upperneck head
    lclavicle lhumerus
    lhumerus lradius
    lradius lwrist
    lwrist lhand lthumb
    lhand lfingers
    rclavicle rhumerus
    rhumerus rradius
    rradius rwrist
    rwrist rhand rthumb
    rhand rfingers
  end

#!OML:ASF H:\IndianDance\Patient Classification 1\Patient 1\Session 1\dancer.ASF
:FULLY-SPECIFIED
:DEGREES
375
root 6.85776 15.2286 4.5951 362.49 20.836 -8.64408
lowerback -2.57568 1.22915 4.52787
upperback -7.61679 1.84219 1.44224
thorax -6.40337 0.722992 -1.0814
lowerneck -17.0064 -3.63282 -1.73638
upperneck 24.4424 -8.72267 14.8565
head 11.6542 -2.2475 4.48849
rclavicle 4.48259e-014 -3.57812e-015
rhumerus 20.2832 -0.257129 -0.199313
rradius 92.1656
rwrist -7.02786
rhand 10.9932 2.44085
rfingers 7.12502
rthumb 36.0677 -23.859
lclavicle 4.48259e-014 -3.57812e-015
lhumerus -7.01926 -60.1244 31.8653
lradius 111.239
lwrist 12.9267
lhand -42.6279 8.38575
lfingers 7.12502
lthumb -15.5 37.7844
rfemur -8.80066 -26.4688 27.5785
rtibia 55.3829
rfoot -0.71588 -17.0986
rtoes -3.68635
lfemur -28.5808 30.7438 -27.1233
ltibia 48.9838
lfoot -18.3005 18.0298
ltoes -0.232655
376
root 6.86302 15.229 4.55547 363.108 17.8808 -8.40652
lowerback -2.29455 1.22544 4.50077
upperback -7.59144 1.84177 1.39268
thorax -6.53603 0.71609 -1.12401
lowerneck -16.8611 -3.87406 -2.01408
upperneck 24.0142 -8.94764 14.8597
head 11.4945 -2.41516 4.48152
rclavicle 8.0309e-014 4.49253e-014
rhumerus 19.5797 -0.723316 -1.83555
rradius 92.5564
rwrist -9.79091
rhand 12.954 1.57311
rfingers 7.12502
rthumb 37.9224 -24.2472
lclavicle 8.0309e-014 4.49253e-014
lhumerus -7.77887 -59.5098 32.4365
lradius 111.757
lwrist 13.8343
lhand -41.5222 8.51152
lfingers 7.12502
lthumb -14.4348 37.9895
rfemur -8.77935 -26.1651 27.4945
rtibia 54.2618
rfoot -1.84196 -18.3928
rtoes -3.89188
lfemur -29.1464 30.9779 -27.2091
ltibia 49.3693
lfoot -18.0972 17.8879
ltoes -0.0284308
377
root 6.86931 15.2293 4.51456 363.697 14.9423 -8.17389
lowerback -1.96559 1.22459 4.42137
upperback -7.58089 1.84824 1.34901
thorax -6.71339 0.715088 -1.13292
lowerneck -16.6975 -4.12086 -2.29391
upperneck 23.5893 -9.17551 14.8499
head 11.334 -2.58545 4.47107
rclavicle -4.04527e-014 -2.78299e-015
rhumerus 18.8899 -1.21773 -3.50962
rradius 92.8999
rwrist -12.4664
rhand 15.0468 0.709672
rfingers 7.12502
rthumb 39.8957 -24.5478
lclavicle -4.04527e-014 -2.78299e-015
lhumerus -8.50504 -58.8706 32.9781
lradius 112.32
lwrist 14.8804
lhand -40.2301 8.61626
lfingers 7.12502
lthumb -13.1896 38.179
rfemur -8.77703 -25.8226 27.3665
rtibia 53.104
rfoot -2.76424 -19.553
rtoes -4.69797
lfemur -29.7129 31.2076 -27.2934
ltibia 49.7943
lfoot -17.8366 17.6863
ltoes 0.140173
378
root 6.87632 15.2298 4.47297 364.264 12.008 -7.94573
lowerback -1.61135 1.23811 4.28085
upperback -7.57689 1.87423 1.30998
thorax -6.9133 0.727447 -1.10454
lowerneck -16.5333 -4.37693 -2.53907
upperneck 23.1693 -9.41462 14.7966
head 11.1742 -2.76139 4.43794
rclavicle 4.87022e-015 2.42517e-014
rhumerus 18.223 -1.7521 -5.25097
rradius 93.1569
rwrist -15.024
rhand 17.3541 -0.184315
rfingers 7.12502
rthumb 42.0627 -24.7533
lclavicle 4.87022e-015 2.42517e-014
lhumerus -9.14591 -58.2139 33.4532
lradius 112.926
lwrist 16.1158
lhand -38.8358 8.87735
lfingers 7.12502
lthumb -11.8453 38.5223
rfemur -8.78792 -25.4432 27.1903
rtibia 51.9508
rfoot -3.67077 -20.5787
rtoes -5.38848
lfemur -30.2918 31.442 -27.3667
ltibia 50.2811
lfoot -17.4962 17.4084
ltoes 0.162483
379
root 6.88507 15.2304 4.43032 364.826 9.09476 -7.72879
lowerback -1.24875 1.26458 4.07727
upperback -7.58621 1.91746 1.29421
thorax -7.13453 0.753059 -1.01819
lowerneck -16.3754 -4.64198 -2.76791
upperneck 22.7625 -9.6586 14.692
head 11.0186 -2.94196 4.38392
rclavicle -2.84262e-014 -1.78906e-014
rhumerus 17.567 -2.3348 -6.9983
rradius 93.3718
rwrist -17.5416
rhand 19.906 -1.18427
rfingers 7.12502
rthumb 44.4475 -24.8982
lclavicle -2.84262e-014 -1.78906e-014
lhumerus -9.71935 -57.5291 33.918
lradius 113.555
lwrist 17.559
lhand -37.3232 9.19545
lfingers 7.12502
lthumb -10.3864 38.9189
rfemur -8.85475 -25.0461 26.9829
rtibia 50.8533
rfoot -4.57257 -21.4382
rtoes -5.90864
lfemur -30.9175 31.6446 -27.4304
ltibia 50.8504
lfoot -17.0378 17.0694
ltoes -0.13659
380
root 6.89567 15.2316 4.38679 365.395 6.20437 -7.54073
lowerback -0.900681 1.30138 3.8522
upperback -7.60362 1.97318 1.29666
thorax -7.35779 0.787398 -0.901616
lowerneck -16.2365 -4.91154 -2.98877
upperneck 22.3674 -9.90426 14.5557
head 10.8704 -3.1236 4.31836
rclavicle -6.55989e-015 -2.34566e-014
rhumerus 16.9466 -2.98556 -8.80237
rradius 93.5064
rwrist -20.0669
rhand 22.6788 -2.31207
rfingers 7.12502
rthumb 47.0219 -24.9686
lclavicle -6.55989e-015 -2.34566e-014
lhumerus -10.2372 -56.8119 34.3635
lradius 114.207
lwrist 19.2178
lhand -35.7908 9.64525
lfingers 7.12502
lthumb -8.90794 39.4372
rfemur -9.00949 -24.6181 26.7718
rtibia 49.8519
rfoot -5.51234 -22.1069
rtoes -6.177
lfemur -31.6078 31.7967 -27.4516
ltibia 51.52
lfoot -16.486 16.5997
ltoes -0.619451
381
root 6.90851 15.233 4.34227 365.985 3.34295 -7.39821
lowerback -0.58244 1.35183 3.641
upperback -7.62912 2.04593 1.31274
thorax -7.57324 0.830499 -0.779294
lowerneck -16.1314 -5.18455 -3.16931
upperneck 21.9976 -10.1527 14.3566
head 10.7336 -3.30607 4.2243
rclavicle -8.24956e-015 -2.62396e-014
rhumerus 16.3436 -3.70875 -10.6782
rradius 93.5706
rwrist -22.6574
rhand 25.586 -3.62247
rfingers 7.12502
rthumb 49.6986 -25.002
lclavicle -8.24956e-015 -2.62396e-014
lhumerus -10.6827 -56.0755 34.7762
lradius 114.872
lwrist 21.051
lhand -34.2622 10.1592
lfingers 7.12502
lthumb -7.43264 40.0086
rfemur -9.27794 -24.1401 26.5806
rtibia 48.9726
rfoot -6.44519 -22.5545
rtoes -6.33278
lfemur -32.3806 31.8883 -27.4107
ltibia 52.3063
lfoot -15.7982 15.9894
ltoes -1.42268
382
root 6.92389 15.2344 4.29715 366.601 0.517792 -7.29537
lowerback -0.298264 1.4111 3.44636
upperback -7.65918 2.12909 1.33838
thorax -7.77469 0.878797 -0.656555
lowerneck -16.0123 -5.46857 -3.38187
upperneck 21.5798 -10.4111 14.1988
head 10.583 -3.4929 4.15004
rclavicle 1.799e-014 -1.47101e-014
rhumerus 15.7515 -4.51368 -12.635
rradius 93.5725
rwrist -25.3459
rhand 28.484 -5.046
rfingers 7.12502
rthumb 52.3389 -24.9482
lclavicle 1.799e-014 -1.47101e-014
lhumerus -11.0726 -55.3174 35.1681
lradius 115.542
lwrist 23.0043
lhand -32.7771 10.7313
lfingers 7.12502
lthumb -5.99899 40.6264
rfemur -9.66001 -23.5857 26.3985
rtibia 48.2198
rfoot -7.35025 -22.7698
rtoes -6.54922
lfemur -33.2294 31.9076 -27.2954
ltibia 53.2182
lfoot -14.9824 15.184
ltoes -2.55949
383
root 6.94201 15.2353 4.25168 367.246 -2.26869 -7.24208
lowerback -0.041536 1.4806 3.27316
upperback -7.69656 2.22603 1.38042
thorax -7.96901 0.93367 -0.529413
lowerneck -15.8985 -5.75914 -3.60768
upperneck 21.1501 -10.6736 14.0432
head 10.4319 -3.68147 4.07969
rclavicle 1.35671e-014 3.4191e-014
rhumerus 15.1575 -5.39365 -14.6709
rradius 93.5155
rwrist -28.1471
rhand 31.2106 -6.5828
rfingers 7.12502
rthumb 54.7919 -24.8709
lclavicle 1.35671e-014 3.4191e-014
lhumerus -11.4275 -54.547 35.5728
lradius 116.206
lwrist 24.9907
lhand -31.3091 11.3292
lfingers 7.12502
lthumb -4.58162 41.2597
rfemur -10.1511 -22.938 26.2285
rtibia 47.5905
rfoot -8.20907 -22.7333
rtoes -6.94068
lfemur -34.143 31.8613 -27.0818
ltibia 54.2517
lfoot -14.0502 14.1305
ltoes -4.01452
